<svg id="visual" viewBox="0 0 960 540" width="960" height="540" xmlns="http://www.w3.org/2000/svg" xmlns:xlink="http://www.w3.org/1999/xlink" version="1.1"><path d="M854 540L851.5 527.2C849 514.3 844 488.7 844.5 463C845 437.3 851 411.7 851.5 386C852 360.3 847 334.7 840.5 308.8C834 283 826 257 820.5 231.2C815 205.3 812 179.7 816.2 154C820.3 128.3 831.7 102.7 837 77C842.3 51.3 841.7 25.7 841.3 12.8L841 0L960 0L960 12.8C960 25.7 960 51.3 960 77C960 102.7 960 128.3 960 154C960 179.7 960 205.3 960 231.2C960 257 960 283 960 308.8C960 334.7 960 360.3 960 386C960 411.7 960 437.3 960 463C960 488.7 960 514.3 960 527.2L960 540Z" fill="#fa7268"></path><path d="M838 540L842.7 527.2C847.3 514.3 856.7 488.7 856.8 463C857 437.3 848 411.7 848.8 386C849.7 360.3 860.3 334.7 859.7 308.8C859 283 847 257 846.3 231.2C845.7 205.3 856.3 179.7 857.8 154C859.3 128.3 851.7 102.7 852.7 77C853.7 51.3 863.3 25.7 868.2 12.8L873 0L960 0L960 12.8C960 25.7 960 51.3 960 77C960 102.7 960 128.3 960 154C960 179.7 960 205.3 960 231.2C960 257 960 283 960 308.8C960 334.7 960 360.3 960 386C960 411.7 960 437.3 960 463C960 488.7 960 514.3 960 527.2L960 540Z" fill="#ef5f67"></path><path d="M893 540L892 527.2C891 514.3 889 488.7 888 463C887 437.3 887 411.7 888.3 386C889.7 360.3 892.3 334.7 889.8 308.8C887.3 283 879.7 257 875.5 231.2C871.3 205.3 870.7 179.7 873.2 154C875.7 128.3 881.3 102.7 885.7 77C890 51.3 893 25.7 894.5 12.8L896 0L960 0L960 12.8C960 25.7 960 51.3 960 77C960 102.7 960 128.3 960 154C960 179.7 960 205.3 960 231.2C960 257 960 283 960 308.8C960 334.7 960 360.3 960 386C960 411.7 960 437.3 960 463C960 488.7 960 514.3 960 527.2L960 540Z" fill="#e34c67"></path><path d="M914 540L910 527.2C906 514.3 898 488.7 895.8 463C893.7 437.3 897.3 411.7 900.7 386C904 360.3 907 334.7 909 308.8C911 283 912 257 911.2 231.2C910.3 205.3 907.7 179.7 906 154C904.3 128.3 903.7 102.7 902.3 77C901 51.3 899 25.7 898 12.8L897 0L960 0L960 12.8C960 25.7 960 51.3 960 77C960 102.7 960 128.3 960 154C960 179.7 960 205.3 960 231.2C960 257 960 283 960 308.8C960 334.7 960 360.3 960 386C960 411.7 960 437.3 960 463C960 488.7 960 514.3 960 527.2L960 540Z" fill="#d53867"></path><path d="M921 540L923.5 527.2C926 514.3 931 488.7 931.8 463C932.7 437.3 929.3 411.7 929.8 386C930.3 360.3 934.7 334.7 935.7 308.8C936.7 283 934.3 257 931.8 231.2C929.3 205.3 926.7 179.7 925.3 154C924 128.3 924 102.7 924.7 77C925.3 51.3 926.7 25.7 927.3 12.8L928 0L960 0L960 12.8C960 25.7 960 51.3 960 77C960 102.7 960 128.3 960 154C960 179.7 960 205.3 960 231.2C960 257 960 283 960 308.8C960 334.7 960 360.3 960 386C960 411.7 960 437.3 960 463C960 488.7 960 514.3 960 527.2L960 540Z" fill="#c62368"></path></svg>