<svg id="visual" viewBox="0 0 960 540" width="960" height="540" xmlns="http://www.w3.org/2000/svg" xmlns:xlink="http://www.w3.org/1999/xlink" version="1.1"><path d="M108 0L110.5 12.8C113 25.7 118 51.3 117.5 77C117 102.7 111 128.3 110.5 154C110 179.7 115 205.3 121.5 231.2C128 257 136 283 141.5 308.8C147 334.7 150 360.3 145.8 386C141.7 411.7 130.3 437.3 125 463C119.7 488.7 120.3 514.3 120.7 527.2L121 540L0 540L0 527.2C0 514.3 0 488.7 0 463C0 437.3 0 411.7 0 386C0 360.3 0 334.7 0 308.8C0 283 0 257 0 231.2C0 205.3 0 179.7 0 154C0 128.3 0 102.7 0 77C0 51.3 0 25.7 0 12.8L0 0Z" fill="#fa7268"></path><path d="M124 0L119.3 12.8C114.7 25.7 105.3 51.3 105.2 77C105 102.7 114 128.3 113.2 154C112.3 179.7 101.7 205.3 102.3 231.2C103 257 115 283 115.7 308.8C116.3 334.7 105.7 360.3 104.2 386C102.7 411.7 110.3 437.3 109.3 463C108.3 488.7 98.7 514.3 93.8 527.2L89 540L0 540L0 527.2C0 514.3 0 488.7 0 463C0 437.3 0 411.7 0 386C0 360.3 0 334.7 0 308.8C0 283 0 257 0 231.2C0 205.3 0 179.7 0 154C0 128.3 0 102.7 0 77C0 51.3 0 25.7 0 12.8L0 0Z" fill="#ef5f67"></path><path d="M69 0L70 12.8C71 25.7 73 51.3 74 77C75 102.7 75 128.3 73.7 154C72.3 179.7 69.7 205.3 72.2 231.2C74.7 257 82.3 283 86.5 308.8C90.7 334.7 91.3 360.3 88.8 386C86.3 411.7 80.7 437.3 76.3 463C72 488.7 69 514.3 67.5 527.2L66 540L0 540L0 527.2C0 514.3 0 488.7 0 463C0 437.3 0 411.7 0 386C0 360.3 0 334.7 0 308.8C0 283 0 257 0 231.2C0 205.3 0 179.7 0 154C0 128.3 0 102.7 0 77C0 51.3 0 25.7 0 12.8L0 0Z" fill="#e34c67"></path><path d="M48 0L52 12.8C56 25.7 64 51.3 66.2 77C68.3 102.7 64.7 128.3 61.3 154C58 179.7 55 205.3 53 231.2C51 257 50 283 50.8 308.8C51.7 334.7 54.3 360.3 56 386C57.7 411.7 58.3 437.3 59.7 463C61 488.7 63 514.3 64 527.2L65 540L0 540L0 527.2C0 514.3 0 488.7 0 463C0 437.3 0 411.7 0 386C0 360.3 0 334.7 0 308.8C0 283 0 257 0 231.2C0 205.3 0 179.7 0 154C0 128.3 0 102.7 0 77C0 51.3 0 25.7 0 12.8L0 0Z" fill="#d53867"></path><path d="M41 0L38.5 12.8C36 25.7 31 51.3 30.2 77C29.3 102.7 32.7 128.3 32.2 154C31.7 179.7 27.3 205.3 26.3 231.2C25.3 257 27.7 283 30.2 308.8C32.7 334.7 35.3 360.3 36.7 386C38 411.7 38 437.3 37.3 463C36.7 488.7 35.3 514.3 34.7 527.2L34 540L0 540L0 527.2C0 514.3 0 488.7 0 463C0 437.3 0 411.7 0 386C0 360.3 0 334.7 0 308.8C0 283 0 257 0 231.2C0 205.3 0 179.7 0 154C0 128.3 0 102.7 0 77C0 51.3 0 25.7 0 12.8L0 0Z" fill="#c62368"></path></svg>