<svg id="visual" viewBox="0 0 960 540" width="960" height="540" xmlns="http://www.w3.org/2000/svg" xmlns:xlink="http://www.w3.org/1999/xlink" version="1.1"><rect x="0" y="0" width="960" height="540" fill="#001220"></rect><path d="M514 540L524 527.2C534 514.3 554 488.7 561.2 463C568.3 437.3 562.7 411.7 550.2 386C537.7 360.3 518.3 334.7 517 308.8C515.7 283 532.3 257 542.5 231.2C552.7 205.3 556.3 179.7 554.7 154C553 128.3 546 102.7 539.3 77C532.7 51.3 526.3 25.7 523.2 12.8L520 0L960 0L960 12.8C960 25.7 960 51.3 960 77C960 102.7 960 128.3 960 154C960 179.7 960 205.3 960 231.2C960 257 960 283 960 308.8C960 334.7 960 360.3 960 386C960 411.7 960 437.3 960 463C960 488.7 960 514.3 960 527.2L960 540Z" fill="#fa7268"></path><path d="M631 540L627.7 527.2C624.3 514.3 617.7 488.7 608.7 463C599.7 437.3 588.3 411.7 584.2 386C580 360.3 583 334.7 584.2 308.8C585.3 283 584.7 257 588.2 231.2C591.7 205.3 599.3 179.7 595 154C590.7 128.3 574.3 102.7 569 77C563.7 51.3 569.3 25.7 572.2 12.8L575 0L960 0L960 12.8C960 25.7 960 51.3 960 77C960 102.7 960 128.3 960 154C960 179.7 960 205.3 960 231.2C960 257 960 283 960 308.8C960 334.7 960 360.3 960 386C960 411.7 960 437.3 960 463C960 488.7 960 514.3 960 527.2L960 540Z" fill="#f36567"></path><path d="M625 540L620.7 527.2C616.3 514.3 607.7 488.7 606.5 463C605.3 437.3 611.7 411.7 626.2 386C640.7 360.3 663.3 334.7 670 308.8C676.7 283 667.3 257 664.8 231.2C662.3 205.3 666.7 179.7 666.7 154C666.7 128.3 662.3 102.7 658.5 77C654.7 51.3 651.3 25.7 649.7 12.8L648 0L960 0L960 12.8C960 25.7 960 51.3 960 77C960 102.7 960 128.3 960 154C960 179.7 960 205.3 960 231.2C960 257 960 283 960 308.8C960 334.7 960 360.3 960 386C960 411.7 960 437.3 960 463C960 488.7 960 514.3 960 527.2L960 540Z" fill="#eb5967"></path><path d="M711 540L704.2 527.2C697.3 514.3 683.7 488.7 681.2 463C678.7 437.3 687.3 411.7 699.7 386C712 360.3 728 334.7 723.5 308.8C719 283 694 257 686.7 231.2C679.3 205.3 689.7 179.7 693.5 154C697.3 128.3 694.7 102.7 695.7 77C696.7 51.3 701.3 25.7 703.7 12.8L706 0L960 0L960 12.8C960 25.7 960 51.3 960 77C960 102.7 960 128.3 960 154C960 179.7 960 205.3 960 231.2C960 257 960 283 960 308.8C960 334.7 960 360.3 960 386C960 411.7 960 437.3 960 463C960 488.7 960 514.3 960 527.2L960 540Z" fill="#e34c67"></path><path d="M738 540L746.5 527.2C755 514.3 772 488.7 774.7 463C777.3 437.3 765.7 411.7 764.5 386C763.3 360.3 772.7 334.7 776.3 308.8C780 283 778 257 773.2 231.2C768.3 205.3 760.7 179.7 757.2 154C753.7 128.3 754.3 102.7 757.2 77C760 51.3 765 25.7 767.5 12.8L770 0L960 0L960 12.8C960 25.7 960 51.3 960 77C960 102.7 960 128.3 960 154C960 179.7 960 205.3 960 231.2C960 257 960 283 960 308.8C960 334.7 960 360.3 960 386C960 411.7 960 437.3 960 463C960 488.7 960 514.3 960 527.2L960 540Z" fill="#da3f67"></path><path d="M851 540L846 527.2C841 514.3 831 488.7 827.5 463C824 437.3 827 411.7 829.2 386C831.3 360.3 832.7 334.7 831 308.8C829.3 283 824.7 257 826.3 231.2C828 205.3 836 179.7 840.2 154C844.3 128.3 844.7 102.7 846.5 77C848.3 51.3 851.7 25.7 853.3 12.8L855 0L960 0L960 12.8C960 25.7 960 51.3 960 77C960 102.7 960 128.3 960 154C960 179.7 960 205.3 960 231.2C960 257 960 283 960 308.8C960 334.7 960 360.3 960 386C960 411.7 960 437.3 960 463C960 488.7 960 514.3 960 527.2L960 540Z" fill="#d03267"></path><path d="M876 540L878.2 527.2C880.3 514.3 884.7 488.7 887.2 463C889.7 437.3 890.3 411.7 894.8 386C899.3 360.3 907.7 334.7 908.5 308.8C909.3 283 902.7 257 901 231.2C899.3 205.3 902.7 179.7 904.8 154C907 128.3 908 102.7 909.2 77C910.3 51.3 911.7 25.7 912.3 12.8L913 0L960 0L960 12.8C960 25.7 960 51.3 960 77C960 102.7 960 128.3 960 154C960 179.7 960 205.3 960 231.2C960 257 960 283 960 308.8C960 334.7 960 360.3 960 386C960 411.7 960 437.3 960 463C960 488.7 960 514.3 960 527.2L960 540Z" fill="#c62368"></path></svg>